<svg width="28" height="24" viewBox="0 0 28 24" fill="#F2BEFC" xmlns="http://www.w3.org/2000/svg">
    <path d="M1.35086 13.1111L26.874 13.1111C27.4959 13.1111 28 12.6133 28 12C28 11.3866 27.4959 10.8889 26.874 10.8889L1.35086 10.8889C0.728945 10.8889 0.224829 11.3862 0.224829 12C0.224829 12.6137 0.728889 13.1111 1.35086 13.1111Z" fill="#F2BEFC"/>
    <path d="M0.329883 12.7859L11.3645 23.6747C11.8044 24.1084 12.5168 24.1084 12.9567 23.6747C13.3966 23.2406 13.3966 22.5369 12.9567 22.1032L2.71817 12L12.9567 1.89667C13.3966 1.46296 13.3966 0.759272 12.9567 0.325565C12.7367 0.108522 12.4489 0 12.1606 0C11.8723 0 11.5844 0.108522 11.3645 0.325565L0.329883 11.2144C-0.110029 11.6485 -0.110029 12.3522 0.329883 12.7859Z" fill="#F2BEFC"/>
</svg>
